<mxfile host="app.diagrams.net" modified="2024-01-06T03:50:00.820Z" agent="Mozilla/5.0 (Windows NT 10.0; Win64; x64) AppleWebKit/537.36 (KHTML, like Gecko) Chrome/120.0.0.0 Safari/537.36" etag="dJVzSthstX8lez3jSwSm" version="22.1.17" type="device">
  <diagram name="Page-1" id="236o0EipqNON47DLTvjz">
    <mxGraphModel dx="880" dy="468" grid="1" gridSize="10" guides="1" tooltips="1" connect="1" arrows="1" fold="1" page="1" pageScale="1" pageWidth="1169" pageHeight="827" math="0" shadow="0">
      <root>
        <mxCell id="0" />
        <mxCell id="1" parent="0" />
        <mxCell id="12sLYEHCiftM3z7gJujR-29" value="&lt;p style=&quot;margin:0px;margin-top:4px;text-align:center;&quot;&gt;&lt;b&gt;B - Dentro do Aplicativo&lt;/b&gt;&lt;br&gt;&lt;/p&gt;&lt;hr size=&quot;1&quot;&gt;&lt;div style=&quot;height:2px;&quot;&gt;&lt;/div&gt;" style="verticalAlign=top;align=left;overflow=fill;fontSize=12;fontFamily=Helvetica;html=1;whiteSpace=wrap;" parent="1" vertex="1">
          <mxGeometry x="560" y="129" width="560" height="440" as="geometry" />
        </mxCell>
        <mxCell id="12sLYEHCiftM3z7gJujR-28" value="&lt;p style=&quot;margin:0px;margin-top:4px;text-align:center;&quot;&gt;&lt;b&gt;A - Fora do Aplicativo&lt;/b&gt;&lt;br&gt;&lt;/p&gt;&lt;hr size=&quot;1&quot;&gt;&lt;div style=&quot;height:2px;&quot;&gt;&lt;/div&gt;" style="verticalAlign=top;align=left;overflow=fill;fontSize=12;fontFamily=Helvetica;html=1;whiteSpace=wrap;" parent="1" vertex="1">
          <mxGeometry x="130" y="129" width="220" height="570" as="geometry" />
        </mxCell>
        <mxCell id="12sLYEHCiftM3z7gJujR-21" style="rounded=0;orthogonalLoop=1;jettySize=auto;html=1;entryX=0;entryY=0.5;entryDx=0;entryDy=0;endArrow=none;endFill=0;" parent="1" source="12sLYEHCiftM3z7gJujR-1" target="12sLYEHCiftM3z7gJujR-3" edge="1">
          <mxGeometry relative="1" as="geometry" />
        </mxCell>
        <mxCell id="12sLYEHCiftM3z7gJujR-1" value="Usuário" style="shape=umlActor;verticalLabelPosition=bottom;verticalAlign=top;html=1;" parent="1" vertex="1">
          <mxGeometry x="50" y="179" width="30" height="60" as="geometry" />
        </mxCell>
        <mxCell id="12sLYEHCiftM3z7gJujR-3" value="UC-A-01 - Abrir Aplicativo" style="ellipse;whiteSpace=wrap;html=1;" parent="1" vertex="1">
          <mxGeometry x="160" y="169" width="160" height="80" as="geometry" />
        </mxCell>
        <mxCell id="12sLYEHCiftM3z7gJujR-4" value="UC-A-02-01 - Mostrar Splash Screen" style="ellipse;whiteSpace=wrap;html=1;" parent="1" vertex="1">
          <mxGeometry x="145" y="429" width="190" height="90" as="geometry" />
        </mxCell>
        <mxCell id="12sLYEHCiftM3z7gJujR-11" value="UC-B-01 - Listar Entidades" style="ellipse;whiteSpace=wrap;html=1;" parent="1" vertex="1">
          <mxGeometry x="600" y="179" width="160" height="80" as="geometry" />
        </mxCell>
        <mxCell id="12sLYEHCiftM3z7gJujR-12" value="UC-B-02 - Manipular Entidades" style="ellipse;whiteSpace=wrap;html=1;" parent="1" vertex="1">
          <mxGeometry x="600" y="279" width="160" height="80" as="geometry" />
        </mxCell>
        <mxCell id="12sLYEHCiftM3z7gJujR-22" style="rounded=0;orthogonalLoop=1;jettySize=auto;html=1;entryX=1;entryY=0.5;entryDx=0;entryDy=0;endArrow=none;endFill=0;" parent="1" source="12sLYEHCiftM3z7gJujR-14" target="12sLYEHCiftM3z7gJujR-17" edge="1">
          <mxGeometry relative="1" as="geometry" />
        </mxCell>
        <mxCell id="12sLYEHCiftM3z7gJujR-14" value="Launch Screen UI" style="shape=umlActor;verticalLabelPosition=bottom;verticalAlign=top;html=1;" parent="1" vertex="1">
          <mxGeometry x="400" y="289" width="30" height="60" as="geometry" />
        </mxCell>
        <mxCell id="12sLYEHCiftM3z7gJujR-17" value="UC-A-02 - Chamar Método de inicialização do aplicativo&lt;code&gt;&lt;br&gt;&lt;/code&gt;" style="ellipse;whiteSpace=wrap;html=1;" parent="1" vertex="1">
          <mxGeometry x="150" y="269" width="180" height="100" as="geometry" />
        </mxCell>
        <mxCell id="12sLYEHCiftM3z7gJujR-33" style="rounded=0;orthogonalLoop=1;jettySize=auto;html=1;endArrow=none;endFill=0;" parent="1" source="12sLYEHCiftM3z7gJujR-18" target="12sLYEHCiftM3z7gJujR-11" edge="1">
          <mxGeometry relative="1" as="geometry" />
        </mxCell>
        <mxCell id="12sLYEHCiftM3z7gJujR-34" style="rounded=0;orthogonalLoop=1;jettySize=auto;html=1;entryX=0;entryY=0.5;entryDx=0;entryDy=0;endArrow=none;endFill=0;" parent="1" source="12sLYEHCiftM3z7gJujR-18" target="12sLYEHCiftM3z7gJujR-12" edge="1">
          <mxGeometry relative="1" as="geometry" />
        </mxCell>
        <mxCell id="12sLYEHCiftM3z7gJujR-18" value="Usuário" style="shape=umlActor;verticalLabelPosition=bottom;verticalAlign=top;html=1;" parent="1" vertex="1">
          <mxGeometry x="480" y="189" width="30" height="60" as="geometry" />
        </mxCell>
        <mxCell id="12sLYEHCiftM3z7gJujR-30" value="&amp;lt;&amp;lt; include &amp;gt;&amp;gt;" style="endArrow=open;endSize=12;dashed=1;html=1;rounded=0;exitX=0.5;exitY=1;exitDx=0;exitDy=0;" parent="1" source="12sLYEHCiftM3z7gJujR-17" target="12sLYEHCiftM3z7gJujR-4" edge="1">
          <mxGeometry width="160" relative="1" as="geometry">
            <mxPoint x="210" y="388.5" as="sourcePoint" />
            <mxPoint x="370" y="388.5" as="targetPoint" />
          </mxGeometry>
        </mxCell>
        <mxCell id="12sLYEHCiftM3z7gJujR-31" value="UC-A-02-02 - Mostrar Tela de Login ao Usuário" style="ellipse;whiteSpace=wrap;html=1;" parent="1" vertex="1">
          <mxGeometry x="140" y="584" width="190" height="90" as="geometry" />
        </mxCell>
        <mxCell id="12sLYEHCiftM3z7gJujR-32" value="&amp;lt;&amp;lt; include &amp;gt;&amp;gt;" style="endArrow=open;endSize=12;dashed=1;html=1;rounded=0;exitX=0.5;exitY=1;exitDx=0;exitDy=0;entryX=0.526;entryY=0;entryDx=0;entryDy=0;entryPerimeter=0;" parent="1" source="12sLYEHCiftM3z7gJujR-4" target="12sLYEHCiftM3z7gJujR-31" edge="1">
          <mxGeometry width="160" relative="1" as="geometry">
            <mxPoint x="239.63" y="549" as="sourcePoint" />
            <mxPoint x="240" y="569" as="targetPoint" />
          </mxGeometry>
        </mxCell>
        <mxCell id="12sLYEHCiftM3z7gJujR-38" value="UC-B-01-01 - Expandir Entidade e Instância selecionada da Entidade" style="ellipse;whiteSpace=wrap;html=1;" parent="1" vertex="1">
          <mxGeometry x="880" y="174" width="210" height="90" as="geometry" />
        </mxCell>
        <mxCell id="12sLYEHCiftM3z7gJujR-40" value="&amp;lt;&amp;lt; include &amp;gt;&amp;gt;" style="endArrow=open;endSize=12;dashed=1;html=1;rounded=0;exitX=1;exitY=0.5;exitDx=0;exitDy=0;entryX=0;entryY=0.5;entryDx=0;entryDy=0;" parent="1" source="12sLYEHCiftM3z7gJujR-11" target="12sLYEHCiftM3z7gJujR-38" edge="1">
          <mxGeometry width="160" relative="1" as="geometry">
            <mxPoint x="810" y="149" as="sourcePoint" />
            <mxPoint x="810" y="209" as="targetPoint" />
          </mxGeometry>
        </mxCell>
        <mxCell id="12sLYEHCiftM3z7gJujR-41" value="UC-B-02-01 - Alterar informações referentes à Entidade Selecionada" style="ellipse;whiteSpace=wrap;html=1;" parent="1" vertex="1">
          <mxGeometry x="592.5" y="439" width="175" height="100" as="geometry" />
        </mxCell>
        <mxCell id="12sLYEHCiftM3z7gJujR-42" value="UC-B-02-02 - Capturar Foto do através da Câmera do Dispositivo" style="ellipse;whiteSpace=wrap;html=1;" parent="1" vertex="1">
          <mxGeometry x="880" y="369" width="210" height="90" as="geometry" />
        </mxCell>
        <mxCell id="12sLYEHCiftM3z7gJujR-43" value="&amp;lt;&amp;lt; include &amp;gt;&amp;gt;" style="endArrow=open;endSize=12;dashed=1;html=1;rounded=0;exitX=0.5;exitY=1;exitDx=0;exitDy=0;entryX=0.5;entryY=0;entryDx=0;entryDy=0;" parent="1" source="12sLYEHCiftM3z7gJujR-12" target="12sLYEHCiftM3z7gJujR-41" edge="1">
          <mxGeometry width="160" relative="1" as="geometry">
            <mxPoint x="770" y="409" as="sourcePoint" />
            <mxPoint x="890" y="409" as="targetPoint" />
          </mxGeometry>
        </mxCell>
        <mxCell id="12sLYEHCiftM3z7gJujR-44" value="&amp;lt;&amp;lt; extend &amp;gt;&amp;gt;" style="endArrow=open;endSize=12;dashed=1;html=1;rounded=0;exitX=1;exitY=0;exitDx=0;exitDy=0;entryX=0;entryY=0.5;entryDx=0;entryDy=0;" parent="1" source="12sLYEHCiftM3z7gJujR-41" target="12sLYEHCiftM3z7gJujR-42" edge="1">
          <mxGeometry width="160" relative="1" as="geometry">
            <mxPoint x="910" y="349" as="sourcePoint" />
            <mxPoint x="1030" y="349" as="targetPoint" />
          </mxGeometry>
        </mxCell>
      </root>
    </mxGraphModel>
  </diagram>
</mxfile>
